<?xml version="1.0" encoding="UTF-8"?>
<svg version="1.1" xmlns="http://www.w3.org/2000/svg" width="1544" height="1544">
<path d="M0 0 C2.57279465 -0.00693315 5.14553115 -0.01858264 7.71830368 -0.03116226 C38.94837342 -0.16276599 70.09784517 1.40844335 101.06623459 5.61791611 C102.23187439 5.77231659 102.23187439 5.77231659 103.42106247 5.92983627 C186.28390246 16.95365565 266.39810816 41.35047858 388.90412521 103.76781845 C391.55911794 105.36363855 394.236265 106.91282925 396.92560959 108.44994736 C417.26083884 120.12353391 436.6835971 133.476699 455.56623459 147.36791611 C456.17757248 147.81618759 456.78891037 148.26445908 457.41877365 148.72631454 C467.10708328 155.84710192 476.51247379 163.27027641 485.79426193 170.91186142 C487.36547554 172.20294959 488.9438585 173.48530195 490.52326584 174.76635361 C501.99433101 184.07084864 513.1152053 193.72025269 523.89777756 203.81274033 C525.58255114 205.38312483 527.27810799 206.94106623 528.97639084 208.49682236 C536.67604576 215.57647753 544.15945557 222.85741353 551.56623459 230.24291611 C552.45053146 231.1226207 553.33482834 232.00232529 554.24592209 232.90868759 C558.64667622 237.31989184 562.90219831 241.79127763 566.9617424 246.51830673 C569.53602516 249.48586093 572.24603607 252.32313449 574.94123459 255.18041611 C579.58813235 260.14630314 584.00918907 265.22042519 588.26154709 270.53197861 C590.44540472 273.21923392 592.68582434 275.84215452 594.95466232 278.45727158 C600.63760961 285.00811105 606.05255561 291.70009494 611.26252365 298.63451767 C612.64666747 300.4748587 614.03973035 302.30823468 615.43342209 304.14135361 C635.9973954 331.27409366 654.83072725 359.71808924 671.56623459 389.36791611 C672.15984787 390.40867294 672.15984787 390.40867294 672.76545334 391.47045517 C692.15503262 425.46663612 708.8620427 460.70824312 722.56623459 497.36791611 C722.9547258 498.4025499 723.34321701 499.43718369 723.74348068 500.50317001 C733.89153395 527.68128968 742.52171131 555.22701688 749.56623459 583.36791611 C750.01627853 585.15020615 750.01627853 585.15020615 750.47541428 586.96850204 C758.99041686 621.00065525 764.4511148 655.55400266 768.56623459 690.36791611 C768.68837326 691.37805771 768.81051193 692.38819931 768.93635178 693.42895126 C769.64325763 699.39974123 770.15935325 705.36948443 770.56623459 711.36791611 C770.65501877 712.6701915 770.74380295 713.97246689 770.83527756 715.31420517 C776.45358236 800.18027189 769.19204068 884.79287736 670.56623459 1157.36791611 C669.95795822 1158.42349716 669.34968185 1159.47907822 668.72297287 1160.56664658 C658.67194157 1177.98379165 647.93142288 1194.78746136 636.56623459 1211.36791611 C636.0045256 1212.18969345 635.44281662 1213.01147079 634.86408615 1213.85815048 C622.6415554 1231.66878819 609.37226548 1248.76111763 595.56623459 1265.36791611 C595.07784103 1265.95540634 594.58944748 1266.54289658 594.08625412 1267.14818954 C588.79225254 1273.49672352 583.40292663 1279.74776362 577.83185959 1285.85619736 C575.93322449 1287.96106351 574.06425634 1290.08567618 572.20295334 1292.22338486 C562.3002729 1303.55674549 551.75462501 1314.27992825 541.12873459 1324.93041611 C540.61481155 1325.44692734 540.10088852 1325.96343857 539.57139206 1326.49560165 C534.3036523 1331.78427311 529.00897561 1336.98816747 523.33405685 1341.84521103 C520.56505543 1344.23027689 517.91876747 1346.74315984 515.25373459 1349.24291611 C510.46108544 1353.70171091 505.54433631 1357.92912402 500.43732834 1362.02807236 C497.73974134 1364.22651401 495.10299156 1366.47859692 492.47468185 1368.75854111 C485.91999604 1374.44375525 479.22463999 1379.86071161 472.28644943 1385.07299423 C470.48456115 1386.42939722 468.69116757 1387.79653634 466.89826584 1389.16479111 C397.82214283 1441.68090801 319.71605594 1482.24305088 82.95692062 1541.11077499 C80.68426399 1541.35522092 78.41309144 1541.61059278 76.14191818 1541.86840439 C52.30330382 1544.52197555 28.42142096 1544.65261183 4.46435165 1544.67754364 C1.9845117 1544.68036684 -0.49531238 1544.68589013 -2.97514725 1544.69155502 C-23.87929256 1544.72612961 -44.59383882 1544.15030804 -65.43376541 1542.36791611 C-66.75842819 1542.2546347 -66.75842819 1542.2546347 -68.10985184 1542.13906479 C-73.05975727 1541.70211719 -77.99752139 1541.18774854 -82.93376541 1540.61791611 C-84.02650269 1540.49386398 -84.02650269 1540.49386398 -85.14131546 1540.36730576 C-115.93732083 1536.84391748 -146.24975753 1531.38623219 -176.43376541 1524.36791611 C-177.59069901 1524.09979111 -178.7476326 1523.83166611 -179.93962479 1523.55541611 C-218.67685799 1514.46861247 -256.78556338 1501.83590546 -293.43376541 1486.36791611 C-295.04203201 1485.6899498 -295.04203201 1485.6899498 -296.68278885 1484.9982872 C-331.50637496 1470.21041087 -365.11941174 1453.0306934 -397.43376541 1433.36791611 C-398.47742264 1432.73450302 -399.52107986 1432.10108994 -400.59636307 1431.44848251 C-427.55242018 1415.02835374 -453.41814578 1396.85665432 -477.75310135 1376.74877548 C-480.02065251 1374.88572066 -482.31957889 1373.06354275 -484.62126541 1371.24291611 C-493.66692472 1364.01853048 -502.41356178 1356.47655385 -510.93767166 1348.64525986 C-513.15751092 1346.6199605 -515.40770057 1344.6419384 -517.68376541 1342.68041611 C-520.78910223 1339.98533721 -523.68445169 1337.14214492 -526.56193924 1334.20727158 C-528.35542127 1332.44490121 -530.20501269 1330.8081585 -532.11735916 1329.17650986 C-536.60009241 1325.27744973 -540.80795382 1321.14146966 -544.99626541 1316.93041611 C-546.07037674 1315.86210556 -546.07037674 1315.86210556 -547.16618729 1314.77221298 C-551.23111913 1310.69988363 -555.1223724 1306.53620485 -558.8573494 1302.15868759 C-560.48038333 1300.31495925 -562.18030313 1298.5873606 -563.93376541 1296.86791611 C-567.64575998 1293.20508703 -571.04223182 1289.32685456 -574.43376541 1285.36791611 C-575.29743729 1284.37018173 -576.16110916 1283.37244736 -577.05095291 1282.34447861 C-589.08162726 1268.42152192 -600.7606107 1254.24858931 -611.80827713 1239.53051376 C-612.88145989 1238.10271969 -613.95853875 1236.67784475 -615.03972244 1235.2560997 C-642.59485708 1199.01248408 -666.04032742 1159.76571958 -686.52946854 1119.15966415 C-687.13259768 1117.96464125 -687.73676572 1116.77014212 -688.34196854 1115.57616806 C-723.66549321 1045.86515429 -747.21328373 970.08269124 -767.63689041 794.61400986 C-767.64391112 792.95328367 -767.65099795 791.29255777 -767.6581459 789.63183212 C-767.6775422 784.35635616 -767.68257951 779.08092413 -767.68376541 773.80541611 C-767.68420727 772.90735874 -767.68464912 772.00930138 -767.68510437 771.08403015 C-767.69171242 745.48718049 -767.64069679 720.0034727 -764.68376541 694.5439415 C-764.4214186 692.26044818 -764.17441949 689.97564506 -763.92985916 687.69018173 C-755.07960208 605.83192314 -732.90395746 525.30953664 -664.95134354 385.94213486 C-662.84837772 382.37494188 -660.86080957 378.74906554 -658.87126541 375.11791611 C-653.99899125 366.31193617 -648.44374135 357.9464166 -642.88640213 349.56225204 C-641.67653952 347.73464781 -640.47759512 345.89982161 -639.28142166 344.06322861 C-633.76706201 335.6459608 -627.83540933 327.53158064 -621.91130447 319.40063095 C-620.66989011 317.69276313 -619.43747775 315.97835701 -618.20720291 314.26244736 C-613.2887366 307.41100354 -608.10419584 300.79113558 -602.86589432 294.18383408 C-601.43439902 292.36871951 -600.01621125 290.54397114 -598.60173416 288.71557236 C-593.80066958 282.52210706 -588.90186499 276.54034998 -583.59001541 270.77025986 C-581.39834646 268.32845478 -579.35267168 265.80923871 -577.30876541 263.24291611 C-569.00888465 252.99183531 -559.71405154 243.52731187 -550.31657791 234.28588486 C-548.54591421 232.48215897 -546.92733267 230.62025677 -545.30876541 228.68041611 C-541.27120001 223.96521735 -536.6833689 219.85210551 -532.12370682 215.65356064 C-528.38232327 212.20445822 -524.73750974 208.70013629 -521.18376541 205.05541611 C-517.11813038 200.93610933 -512.79421468 197.31536791 -508.27360916 193.70775986 C-505.28241282 191.24321157 -502.44653186 188.64259313 -499.62126541 185.99291611 C-494.3559924 181.08395904 -488.8169624 176.63910565 -483.12126541 172.24291611 C-479.91837334 169.7654654 -476.78931928 167.2077794 -473.66765213 164.62914658 C-465.27712686 157.70897671 -456.59130582 151.30012081 -447.72478104 145.0060997 C-445.42162199 143.35923299 -443.13652658 141.6899992 -440.85564041 140.01244736 C-431.95489151 133.47785317 -422.91835978 127.3826198 -413.49089432 121.63793564 C-411.37550662 120.3319486 -409.28372784 118.9941845 -407.19548416 117.64525986 C-371.23983786 94.45368978 -332.94412216 74.74402343 -293.43376541 58.36791611 C-292.72772171 58.07505722 -292.02167801 57.78219833 -291.29423904 57.48046494 C-256.63325609 43.15605212 -220.89148272 31.20213792 -184.43376541 22.36791611 C-183.42754135 22.12295395 -183.42754135 22.12295395 -182.40098953 21.87304306 C-148.51156576 13.63655641 -114.48257959 7.45986868 -79.81010818 3.63219833 C-77.57078849 3.38315497 -75.33285674 3.12397672 -73.09489822 2.86303329 C-48.80697814 0.0945341 -24.41367388 0.05514718 0 0 Z " fill="#24273A" transform="translate(767.433765411377,-0.3679161071777344)"/>
<path d="M0 0 C2.57279465 -0.00693315 5.14553115 -0.01858264 7.71830368 -0.03116226 C38.94837342 -0.16276599 70.09784517 1.40844335 101.06623459 5.61791611 C102.23187439 5.77231659 102.23187439 5.77231659 103.42106247 5.92983627 C186.28390246 16.95365565 266.39810816 41.35047858 388.90412521 103.76781845 C391.55911794 105.36363855 394.236265 106.91282925 396.92560959 108.44994736 C417.26083884 120.12353391 436.6835971 133.476699 455.56623459 147.36791611 C456.17757248 147.81618759 456.78891037 148.26445908 457.41877365 148.72631454 C467.10708328 155.84710192 476.51247379 163.27027641 485.79426193 170.91186142 C487.36547554 172.20294959 488.9438585 173.48530195 490.52326584 174.76635361 C501.99433101 184.07084864 513.1152053 193.72025269 523.89777756 203.81274033 C525.58255114 205.38312483 527.27810799 206.94106623 528.97639084 208.49682236 C536.67604576 215.57647753 544.15945557 222.85741353 551.56623459 230.24291611 C552.45053146 231.1226207 553.33482834 232.00232529 554.24592209 232.90868759 C558.64667622 237.31989184 562.90219831 241.79127763 566.9617424 246.51830673 C569.53602516 249.48586093 572.24603607 252.32313449 574.94123459 255.18041611 C579.58813235 260.14630314 584.00918907 265.22042519 588.26154709 270.53197861 C590.44540472 273.21923392 592.68582434 275.84215452 594.95466232 278.45727158 C600.63760961 285.00811105 606.05255561 291.70009494 611.26252365 298.63451767 C612.64666747 300.4748587 614.03973035 302.30823468 615.43342209 304.14135361 C635.9973954 331.27409366 654.83072725 359.71808924 671.56623459 389.36791611 C672.15984787 390.40867294 672.15984787 390.40867294 672.76545334 391.47045517 C692.15503262 425.46663612 708.8620427 460.70824312 722.56623459 497.36791611 C722.9547258 498.4025499 723.34321701 499.43718369 723.74348068 500.50317001 C733.89153395 527.68128968 742.52171131 555.22701688 749.56623459 583.36791611 C750.01627853 585.15020615 750.01627853 585.15020615 750.47541428 586.96850204 C758.99041686 621.00065525 764.4511148 655.55400266 768.56623459 690.36791611 C768.68837326 691.37805771 768.81051193 692.38819931 768.93635178 693.42895126 C769.64325763 699.39974123 770.15935325 705.36948443 770.56623459 711.36791611 C770.65501877 712.6701915 770.74380295 713.97246689 770.83527756 715.31420517 C776.45358236 800.18027189 769.19204068 884.79287736 670.56623459 1157.36791611 C669.95795822 1158.42349716 669.34968185 1159.47907822 668.72297287 1160.56664658 C658.67194157 1177.98379165 647.93142288 1194.78746136 636.56623459 1211.36791611 C636.0045256 1212.18969345 635.44281662 1213.01147079 634.86408615 1213.85815048 C622.6415554 1231.66878819 609.37226548 1248.76111763 595.56623459 1265.36791611 C595.07784103 1265.95540634 594.58944748 1266.54289658 594.08625412 1267.14818954 C588.79225254 1273.49672352 583.40292663 1279.74776362 577.83185959 1285.85619736 C575.93322449 1287.96106351 574.06425634 1290.08567618 572.20295334 1292.22338486 C562.3002729 1303.55674549 551.75462501 1314.27992825 541.12873459 1324.93041611 C540.61481155 1325.44692734 540.10088852 1325.96343857 539.57139206 1326.49560165 C534.3036523 1331.78427311 529.00897561 1336.98816747 523.33405685 1341.84521103 C520.56505543 1344.23027689 517.91876747 1346.74315984 515.25373459 1349.24291611 C510.46108544 1353.70171091 505.54433631 1357.92912402 500.43732834 1362.02807236 C497.73974134 1364.22651401 495.10299156 1366.47859692 492.47468185 1368.75854111 C485.91999604 1374.44375525 479.22463999 1379.86071161 472.28644943 1385.07299423 C470.48456115 1386.42939722 468.69116757 1387.79653634 466.89826584 1389.16479111 C432.5407979 1415.2855507 395.8948252 1438.52943277 357.56623459 1458.36791611 C356.13585861 1459.10944931 356.13585861 1459.10944931 354.67658615 1459.86596298 C353.77649826 1460.32551376 352.87641037 1460.78506454 351.94904709 1461.25854111 C350.75239426 1461.87004013 350.75239426 1461.87004013 349.53156662 1462.49389267 C347.56623459 1463.36791611 347.56623459 1463.36791611 345.56623459 1463.36791611 C345.2724404 1458.05553145 344.98125234 1452.74300795 344.69123459 1447.43041611 C344.64643967 1446.61181107 344.60164474 1445.79320602 344.5554924 1444.94979477 C344.02329405 1435.20002015 343.51346473 1425.44974467 343.05842209 1415.69604111 C341.7749589 1388.19770341 339.90884887 1360.88145061 336.80842209 1333.51952744 C336.54870427 1331.2121755 336.2934065 1328.90436314 336.03889084 1326.59643173 C331.42626914 1284.83147292 326.16396986 1242.92569885 317.08942795 1201.86181259 C316.88970383 1200.94601425 316.68997971 1200.03021591 316.48420334 1199.08666611 C316.30655441 1198.29195908 316.12890549 1197.49725204 315.94587326 1196.67846298 C315.52094273 1194.092262 315.21954044 1191.97781901 315.56623459 1189.36791611 C317.30012131 1187.72143173 317.30012131 1187.72143173 319.74592209 1186.27416611 C321.09665817 1185.45093857 321.09665817 1185.45093857 322.47468185 1184.61108017 C323.45364426 1184.03583603 324.43260666 1183.46059189 325.44123459 1182.86791611 C327.47130758 1181.62758041 329.49861495 1180.38270794 331.52326584 1179.13354111 C332.54243088 1178.5064122 333.56159592 1177.87928329 334.61164474 1177.23315048 C341.85799313 1172.65852631 348.71361764 1167.50653365 355.56623459 1162.36791611 C356.17821701 1161.90900986 356.79019943 1161.45010361 357.42072678 1160.97729111 C367.92167667 1153.06521806 378.10524943 1144.8466489 387.76545334 1135.92260361 C389.23955248 1134.57802783 390.71860146 1133.23791093 392.2364006 1131.94286728 C398.27205992 1126.78974745 403.86946692 1121.21655919 409.46638107 1115.59814072 C411.12550779 1113.93365333 412.7899151 1112.27458164 414.45490646 1110.61596298 C420.03507922 1105.03959346 425.47665921 1099.40118538 430.56623459 1093.36791611 C431.45461123 1092.34625917 432.34388485 1091.32538127 433.23420334 1090.30541611 C440.40812153 1081.94140606 447.07837593 1073.27257504 453.56623459 1064.36791611 C454.31888596 1063.33876083 454.31888596 1063.33876083 455.0867424 1062.28881454 C462.31179075 1052.36889285 468.96652804 1042.19813946 475.21613693 1031.63744736 C476.54039873 1029.41134651 477.8891668 1027.20172988 479.24201584 1024.99291611 C491.14403884 1005.30514829 500.61320748 983.9356411 508.56623459 962.36791611 C509.15549728 960.77439316 509.15549728 960.77439316 509.75666428 959.14867783 C519.91913879 931.37567389 526.39647483 903.56493051 530.56623459 874.36791611 C530.69369064 873.49087021 530.8211467 872.61382431 530.95246506 871.71020126 C533.22984878 855.82942594 533.75295474 839.96109415 533.75153732 823.94286728 C533.75371827 821.20092721 533.77194468 818.45939471 533.79084396 815.71752548 C533.84568734 798.65942327 532.30854978 781.85629062 529.75373459 764.99291611 C529.49717087 763.29558334 529.49717087 763.29558334 529.23542404 761.56396103 C526.19308287 742.05830931 521.41639745 723.20916511 515.56623459 704.36791611 C515.29585373 703.48426376 515.02547287 702.60061142 514.74689865 701.69018173 C508.55074835 681.59250941 500.42365881 662.03961861 490.63801193 643.42162704 C489.43380782 641.11416349 488.2597875 638.79243791 487.08576584 636.46947861 C469.23147063 601.40918279 445.9839388 569.63751789 419.55842209 540.57885361 C417.79376329 538.62042836 416.08361323 536.62814614 414.37873459 534.61791611 C412.06993296 531.90135477 409.61690384 529.47083337 406.98420334 527.07494736 C406.0206694 526.17630966 406.0206694 526.17630966 405.03767014 525.25951767 C403.74566424 524.0607922 402.43362926 522.88322153 401.10065842 521.73022079 C396.73585336 517.6383261 396.73585336 517.6383261 396.30305099 514.3967247 C396.53916654 511.98856735 397.02077793 509.72570367 397.56623459 507.36791611 C397.93525222 505.27539515 398.29662179 503.18151741 398.65217209 501.08666611 C398.85946945 499.93343857 399.06676682 498.78021103 399.28034592 497.5920372 C406.79049286 455.27220661 408.29760957 412.01906702 402.56623459 369.36791611 C402.44876877 368.48651962 402.33130295 367.60512314 402.21027756 366.69701767 C401.4954737 361.55084607 400.59298256 356.46032499 399.56623459 351.36791611 C399.38834396 350.4716954 399.21045334 349.5754747 399.02717209 348.65209579 C396.54980665 336.31894484 393.71195466 324.24925758 389.56623459 312.36791611 C389.31116135 311.62622177 389.0560881 310.88452744 388.79328537 310.12035751 C379.18190778 280.8700089 379.18190778 280.8700089 357.56623459 260.36791611 C353.60353179 258.84254695 349.76328225 257.97887874 345.56623459 257.36791611 C344.65100021 257.22998642 343.73576584 257.09205673 342.79279709 256.94994736 C330.75959778 256.09504178 318.87473979 260.79825164 307.56623459 264.36791611 C306.58235764 264.67793564 305.59848068 264.98795517 304.58478928 265.30736923 C274.83425759 274.84292583 247.07978139 288.35013761 221.56623459 306.36791611 C220.87014084 306.85904892 220.17404709 307.35018173 219.45685959 307.85619736 C209.98275641 314.60560545 201.39321297 321.97782145 192.99982834 330.01977158 C191.2472974 331.66784307 189.41854704 333.20847931 187.56623459 334.74291611 C178.77958196 342.36303242 170.96745183 351.34502237 163.81623459 360.49291611 C163.37319992 361.05768661 162.93016525 361.62245712 162.47370529 362.20434189 C160.20738994 365.13091575 158.05094086 368.10035126 155.98029709 371.16869736 C149.98953397 379.88305588 149.98953397 379.88305588 146.43342209 381.09447861 C143.93649547 380.90098983 141.94234017 380.17054119 139.56623459 379.36791611 C129.09334425 376.11187618 118.58643084 373.80380075 107.81623459 371.80541611 C107.00244339 371.65350815 106.18865219 371.50160019 105.35020065 371.34508896 C91.13336394 368.70633754 76.98225704 366.58547316 62.56623459 365.36791611 C61.82836716 365.30324142 61.09049973 365.23856674 60.33027267 365.17193222 C7.11060181 360.50832484 -45.58823287 361.34243809 -98.43376541 369.36791611 C-99.43585037 369.51309677 -100.43793533 369.65827744 -101.47038651 369.80785751 C-132.32045678 374.29184929 -164.13817629 381.20943548 -193.17448807 392.67895126 C-196.97633204 394.12312326 -199.59621899 394.94163262 -203.43376541 393.36791611 C-205.59001541 391.38354111 -205.59001541 391.38354111 -207.93376541 388.61791611 C-213.37154039 382.40848565 -219.10950262 376.52731738 -224.93376541 370.68041611 C-225.79937088 369.80224228 -226.66497635 368.92406845 -227.55681229 368.01928329 C-233.53307091 362.03178265 -239.79213953 356.60307282 -246.43376541 351.36791611 C-247.59150467 350.44377914 -247.59150467 350.44377914 -248.7726326 349.50097275 C-279.8956682 324.87155081 -315.37205295 307.38774807 -353.43376541 296.36791611 C-354.15684891 296.15779892 -354.8799324 295.94768173 -355.62492752 295.73119736 C-403.74913011 281.8609962 -403.74913011 281.8609962 -451.04704666 289.90307236 C-459.76436918 295.25331122 -465.06179401 303.82984975 -467.62517166 313.62182236 C-468.71246005 318.17606031 -469.60032479 322.76133913 -470.43376541 327.36791611 C-470.75667557 329.09268173 -470.75667557 329.09268173 -471.08610916 330.85229111 C-483.28521822 402.44414281 -467.16918231 485.87679451 -449.46110916 555.21166611 C-449.29695511 555.85611679 -449.13280106 556.50056747 -448.96367264 557.16454697 C-448.16841999 560.27589177 -447.35879268 563.38251842 -446.52995682 566.48510361 C-446.24169022 567.59111923 -445.95342361 568.69713486 -445.65642166 569.83666611 C-445.26595657 571.29749619 -445.26595657 571.29749619 -444.8676033 572.78783798 C-444.15449153 577.02878633 -445.29288996 579.48113968 -447.69939041 582.92260361 C-448.17078445 583.60846542 -448.6421785 584.29432724 -449.12785721 585.00097275 C-449.64130692 585.74081406 -450.15475662 586.48065536 -450.68376541 587.24291611 C-498.77462627 658.00674301 -522.69989093 743.07671937 -528.20012283 827.88378525 C-528.43376541 830.36791611 -528.43376541 830.36791611 -528.95012283 833.11791611 C-529.55967296 837.21399451 -529.57654489 841.19792217 -529.56657791 845.33275986 C-529.56807846 846.19397949 -529.56957901 847.05519913 -529.57112503 847.94251633 C-529.5734739 850.73019742 -529.56723603 853.51774793 -529.55876541 856.30541611 C-529.55654984 857.25908066 -529.55433426 858.21274521 -529.55205154 859.19530869 C-529.45557866 894.46876386 -526.39427949 928.7570794 -519.43376541 963.36791611 C-519.26908768 964.18985458 -519.10440994 965.01179306 -518.93474197 965.85863876 C-510.97865677 1004.57096457 -494.74932587 1044.05959923 -473.43376541 1077.36791611 C-473.03238358 1077.99762314 -472.63100174 1078.62733017 -472.21745682 1079.27611923 C-458.04322012 1101.34863357 -441.67602663 1121.53640284 -423.43376541 1140.36791611 C-422.85707108 1140.96652451 -422.28037674 1141.5651329 -421.68620682 1142.18188095 C-415.49723136 1148.58396317 -409.21227749 1154.60704324 -402.21892166 1160.14135361 C-399.74339093 1162.1203894 -397.34372354 1164.1657161 -394.95378494 1166.24657822 C-386.53763207 1173.53962522 -377.56025212 1179.99826063 -368.43376541 1186.36791611 C-367.48678787 1187.03089706 -367.48678787 1187.03089706 -366.52067947 1187.70727158 C-351.2144153 1198.35348085 -334.97747539 1207.78391565 -318.43376541 1216.36791611 C-319.06527126 1222.87517205 -321.05841815 1228.74852714 -323.12126541 1234.93041611 C-326.62359346 1245.63995586 -329.7297801 1256.40243677 -332.60539627 1267.29442978 C-333.24392604 1269.66355775 -333.89627014 1272.02686189 -334.56096268 1274.38866806 C-337.57656998 1285.10626135 -340.37494313 1295.85977928 -342.99626541 1306.68041611 C-343.19208206 1307.48562698 -343.38789871 1308.29083786 -343.5896492 1309.12044907 C-345.97627457 1318.95743596 -348.29791347 1328.78731703 -350.0491066 1338.7612114 C-350.98275498 1344.04066187 -352.03330803 1349.28356591 -353.15887833 1354.52529526 C-356.00256126 1367.78957448 -358.34960377 1381.10030074 -360.49626541 1394.49291611 C-360.66674393 1395.54478104 -360.83722244 1396.59664597 -361.01286697 1397.68038559 C-363.79844513 1414.87173087 -366.33213742 1432.07860857 -368.43376541 1449.36791611 C-371.72515667 1448.10988928 -374.7844156 1446.70835417 -377.84782791 1444.96947861 C-378.68120682 1444.4965538 -379.51458572 1444.023629 -380.37321854 1443.53637314 C-381.25944901 1443.02703232 -382.14567947 1442.5176915 -383.05876541 1441.99291611 C-384.4538533 1441.1921666 -384.4538533 1441.1921666 -385.87712479 1440.37524033 C-406.77261834 1428.29259495 -427.08381458 1414.96588531 -446.57292557 1400.72533798 C-448.68136526 1399.18730011 -450.79813322 1397.66101932 -452.91423416 1396.13354111 C-463.11799831 1388.7301364 -472.95529921 1380.99174786 -482.61198807 1372.88988876 C-485.09474762 1370.81570985 -487.60763489 1368.77950726 -490.12126541 1366.74291611 C-501.29480846 1357.59173379 -512.03840925 1348.06516192 -522.5382576 1338.15014267 C-524.42418986 1336.37691939 -526.32125484 1334.61653341 -528.22282791 1332.86010361 C-549.62504137 1313.07445501 -549.62504137 1313.07445501 -558.92985916 1302.09057236 C-560.5248254 1300.26361103 -562.20394383 1298.56732324 -563.93376541 1296.86791611 C-567.64575998 1293.20508703 -571.04223182 1289.32685456 -574.43376541 1285.36791611 C-575.29743729 1284.37018173 -576.16110916 1283.37244736 -577.05095291 1282.34447861 C-589.08162726 1268.42152192 -600.7606107 1254.24858931 -611.80827713 1239.53051376 C-612.88145989 1238.10271969 -613.95853875 1236.67784475 -615.03972244 1235.2560997 C-642.59485708 1199.01248408 -666.04032742 1159.76571958 -686.52946854 1119.15966415 C-687.13259768 1117.96464125 -687.73676572 1116.77014212 -688.34196854 1115.57616806 C-723.66549321 1045.86515429 -747.21328373 970.08269124 -767.63689041 794.61400986 C-767.64391112 792.95328367 -767.65099795 791.29255777 -767.6581459 789.63183212 C-767.6775422 784.35635616 -767.68257951 779.08092413 -767.68376541 773.80541611 C-767.68420727 772.90735874 -767.68464912 772.00930138 -767.68510437 771.08403015 C-767.69171242 745.48718049 -767.64069679 720.0034727 -764.68376541 694.5439415 C-764.4214186 692.26044818 -764.17441949 689.97564506 -763.92985916 687.69018173 C-755.07960208 605.83192314 -732.90395746 525.30953664 -664.95134354 385.94213486 C-662.84837772 382.37494188 -660.86080957 378.74906554 -658.87126541 375.11791611 C-653.99899125 366.31193617 -648.44374135 357.9464166 -642.88640213 349.56225204 C-641.67653952 347.73464781 -640.47759512 345.89982161 -639.28142166 344.06322861 C-633.76706201 335.6459608 -627.83540933 327.53158064 -621.91130447 319.40063095 C-620.66989011 317.69276313 -619.43747775 315.97835701 -618.20720291 314.26244736 C-613.2887366 307.41100354 -608.10419584 300.79113558 -602.86589432 294.18383408 C-601.43439902 292.36871951 -600.01621125 290.54397114 -598.60173416 288.71557236 C-593.80066958 282.52210706 -588.90186499 276.54034998 -583.59001541 270.77025986 C-581.39834646 268.32845478 -579.35267168 265.80923871 -577.30876541 263.24291611 C-569.00888465 252.99183531 -559.71405154 243.52731187 -550.31657791 234.28588486 C-548.54591421 232.48215897 -546.92733267 230.62025677 -545.30876541 228.68041611 C-541.27120001 223.96521735 -536.6833689 219.85210551 -532.12370682 215.65356064 C-528.38232327 212.20445822 -524.73750974 208.70013629 -521.18376541 205.05541611 C-517.11813038 200.93610933 -512.79421468 197.31536791 -508.27360916 193.70775986 C-505.28241282 191.24321157 -502.44653186 188.64259313 -499.62126541 185.99291611 C-494.3559924 181.08395904 -488.8169624 176.63910565 -483.12126541 172.24291611 C-479.91837334 169.7654654 -476.78931928 167.2077794 -473.66765213 164.62914658 C-465.27712686 157.70897671 -456.59130582 151.30012081 -447.72478104 145.0060997 C-445.42162199 143.35923299 -443.13652658 141.6899992 -440.85564041 140.01244736 C-431.95489151 133.47785317 -422.91835978 127.3826198 -413.49089432 121.63793564 C-411.37550662 120.3319486 -409.28372784 118.9941845 -407.19548416 117.64525986 C-371.23983786 94.45368978 -332.94412216 74.74402343 -293.43376541 58.36791611 C-292.72772171 58.07505722 -292.02167801 57.78219833 -291.29423904 57.48046494 C-256.63325609 43.15605212 -220.89148272 31.20213792 -184.43376541 22.36791611 C-183.42754135 22.12295395 -183.42754135 22.12295395 -182.40098953 21.87304306 C-148.51156576 13.63655641 -114.48257959 7.45986868 -79.81010818 3.63219833 C-77.57078849 3.38315497 -75.33285674 3.12397672 -73.09489822 2.86303329 C-48.80697814 0.0945341 -24.41367388 0.05514718 0 0 Z " fill="#F4A97F" transform="translate(767.433765411377,-0.3679161071777344)"/>
<path d="M0 0 C0 3 0 3 -1.43348694 4.78752136 C-2.441063 5.78058037 -2.441063 5.78058037 -3.46899414 6.79370117 C-4.22720963 7.54846237 -4.98542511 8.30322357 -5.76661682 9.08085632 C-6.59773483 9.89335342 -7.42885284 10.70585052 -8.28515625 11.54296875 C-9.13420029 12.38539627 -9.98324432 13.22782379 -10.85801697 14.09577942 C-13.5858782 16.80016785 -16.32363359 19.49426135 -19.0625 22.1875 C-21.77470342 24.86450817 -24.4847297 27.5436666 -27.19200134 30.22566223 C-28.87834301 31.89519456 -30.56776785 33.56162039 -32.26075745 35.22441101 C-33.04103806 35.99493301 -33.82131866 36.76545502 -34.62524414 37.55932617 C-35.64117393 38.55835213 -35.64117393 38.55835213 -36.67762756 39.57756042 C-38.50986433 41.4887452 -40.220845 43.42113345 -41.93528748 45.43402576 C-46.82260543 51.02956337 -52.10000586 56.23517146 -57.35777283 61.47802734 C-58.50659717 62.62728835 -59.65520149 63.77676933 -60.80360609 64.92644978 C-63.943787 68.06885692 -67.08706085 71.20815392 -70.23086751 74.34693313 C-73.62659356 77.73832791 -77.01941597 81.13262541 -80.41259766 84.52656555 C-86.28655853 90.40104997 -92.16234292 96.2737053 -98.03938103 102.14511108 C-106.53651811 110.63411014 -115.03088211 119.12587959 -123.52457876 127.61832082 C-137.30617766 141.39773283 -151.09000677 155.17491166 -164.87524414 168.95068359 C-178.26378763 182.3300436 -191.6512771 195.71045682 -205.03735352 209.09228516 C-206.27569158 210.33022914 -206.27569158 210.33022914 -207.53904658 211.59318209 C-211.68075709 215.73358753 -215.82244692 219.87401366 -219.96412647 224.01445007 C-254.30621207 258.34617434 -288.65191964 292.67427342 -323 327 C-324.01764435 326.45580917 -325.0352887 325.91161835 -326.08377075 325.35093689 C-327.4388084 324.62707946 -328.79386087 323.90324975 -330.14892578 323.17944336 C-330.81728958 322.82193748 -331.48565338 322.46443161 -332.17427063 322.09609222 C-352.64297248 311.16695871 -373.69274074 302.44097512 -396 296 C-397.08414185 295.68506592 -397.08414185 295.68506592 -398.19018555 295.36376953 C-446.31473692 281.49252952 -446.31473692 281.49252952 -493.61328125 289.53515625 C-502.33060377 294.88539511 -507.6280286 303.46193364 -510.19140625 313.25390625 C-511.27869463 317.8081442 -512.16655938 322.39342302 -513 327 C-513.32291016 328.72476563 -513.32291016 328.72476563 -513.65234375 330.484375 C-525.85145281 402.07622671 -509.7354169 485.50887841 -492.02734375 554.84375 C-491.8631897 555.48820068 -491.69903564 556.13265137 -491.52990723 556.79663086 C-490.73465458 559.90797566 -489.92502727 563.01460231 -489.09619141 566.1171875 C-488.8079248 567.22320313 -488.5196582 568.32921875 -488.22265625 569.46875 C-487.83219116 570.92958008 -487.83219116 570.92958008 -487.43383789 572.41992188 C-486.72072612 576.66087022 -487.85912455 579.11322357 -490.265625 582.5546875 C-490.73701904 583.24054932 -491.20841309 583.92641113 -491.6940918 584.63305664 C-492.2075415 585.37289795 -492.72099121 586.11273926 -493.25 586.875 C-541.34086086 657.6388269 -565.26612551 742.70880326 -570.76635742 827.51586914 C-571 830 -571 830 -571.51635742 832.75 C-572.12590755 836.84607841 -572.14277947 840.83000606 -572.1328125 844.96484375 C-572.13431305 845.82606339 -572.1358136 846.68728302 -572.13735962 847.57460022 C-572.13970849 850.36228131 -572.13347062 853.14983183 -572.125 855.9375 C-572.12278442 856.89116455 -572.12056885 857.8448291 -572.11828613 858.82739258 C-572.02181325 894.10084775 -568.96051408 928.3891633 -562 963 C-561.83532227 963.82193848 -561.67064453 964.64387695 -561.50097656 965.49072266 C-553.54489135 1004.20304847 -537.31556046 1043.69168312 -516 1077 C-515.59861816 1077.62970703 -515.19723633 1078.25941406 -514.78369141 1078.90820312 C-500.6094547 1100.98071747 -484.24226122 1121.16848673 -466 1140 C-465.42330566 1140.5986084 -464.84661133 1141.1972168 -464.25244141 1141.81396484 C-458.06346595 1148.21604706 -451.77851208 1154.23912713 -444.78515625 1159.7734375 C-442.30962552 1161.75247329 -439.90995813 1163.79779999 -437.52001953 1165.87866211 C-429.10386666 1173.17170912 -420.12648671 1179.63034452 -411 1186 C-410.05302246 1186.66298096 -410.05302246 1186.66298096 -409.08691406 1187.33935547 C-393.78064989 1197.98556475 -377.54370998 1207.41599954 -361 1216 C-361.63150585 1222.50725594 -363.62465274 1228.38061103 -365.6875 1234.5625 C-369.18982804 1245.27203976 -372.29601469 1256.03452066 -375.17163086 1266.92651367 C-375.81016063 1269.29564165 -376.46250473 1271.65894578 -377.12719727 1274.02075195 C-380.14280457 1284.73834524 -382.94117772 1295.49186318 -385.5625 1306.3125 C-385.75831665 1307.11771088 -385.9541333 1307.92292175 -386.15588379 1308.75253296 C-388.54250916 1318.58951986 -390.86414806 1328.41940092 -392.61534119 1338.39329529 C-393.54898957 1343.67274577 -394.59954262 1348.9156498 -395.72511292 1354.15737915 C-398.56879585 1367.42165837 -400.91583836 1380.73238463 -403.0625 1394.125 C-403.23297852 1395.17686493 -403.40345703 1396.22872986 -403.57910156 1397.31246948 C-406.36467972 1414.50381476 -408.89837201 1431.71069246 -411 1449 C-414.29139126 1447.74197318 -417.35065019 1446.34043806 -420.4140625 1444.6015625 C-421.24744141 1444.1286377 -422.08082031 1443.65571289 -422.93945312 1443.16845703 C-423.82568359 1442.65911621 -424.71191406 1442.14977539 -425.625 1441.625 C-427.02008789 1440.82425049 -427.02008789 1440.82425049 -428.44335938 1440.00732422 C-449.33885293 1427.92467884 -469.65004917 1414.5979692 -489.13916016 1400.35742188 C-491.24759984 1398.819384 -493.3643678 1397.29310321 -495.48046875 1395.765625 C-505.6842329 1388.36222029 -515.5215338 1380.62383175 -525.17822266 1372.52197266 C-527.66098221 1370.44779374 -530.17386948 1368.41159115 -532.6875 1366.375 C-543.86104305 1357.22381768 -554.60464384 1347.69724581 -565.10449219 1337.78222656 C-566.99042445 1336.00900329 -568.88748942 1334.2486173 -570.7890625 1332.4921875 C-592.19127596 1312.7065389 -592.19127596 1312.7065389 -601.49609375 1301.72265625 C-603.09105998 1299.89569493 -604.77017842 1298.19940713 -606.5 1296.5 C-610.21199457 1292.83717092 -613.60846641 1288.95893845 -617 1285 C-617.86367188 1284.00226563 -618.72734375 1283.00453125 -619.6171875 1281.9765625 C-631.64786185 1268.05360581 -643.32684529 1253.88067321 -654.37451172 1239.16259766 C-655.44769448 1237.73480359 -656.52477334 1236.30992864 -657.60595703 1234.88818359 C-685.16109166 1198.64456797 -708.60656201 1159.39780348 -729.09570312 1118.79174805 C-729.69883227 1117.59672515 -730.30300031 1116.40222601 -730.90820312 1115.20825195 C-766.2317278 1045.49723818 -789.77951832 969.71477513 -810.203125 794.24609375 C-810.21014571 792.58536756 -810.21723254 790.92464166 -810.22438049 789.26391602 C-810.24377679 783.98844005 -810.2488141 778.71300803 -810.25 773.4375 C-810.25044186 772.53944263 -810.25088371 771.64138527 -810.25133896 770.71611404 C-810.25794701 745.11926438 -810.20693138 719.63555659 -807.25 694.17602539 C-806.98765319 691.89253208 -806.74065408 689.60772895 -806.49609375 687.32226562 C-797.64583667 605.46400704 -775.47019205 524.94162053 -707.51757812 385.57421875 C-705.41461231 382.00702578 -703.42704416 378.38114944 -701.4375 374.75 C-696.56522583 365.94402006 -691.00997594 357.57850049 -685.45263672 349.19433594 C-684.2427741 347.36673171 -683.0438297 345.5319055 -681.84765625 343.6953125 C-676.3332966 335.2780447 -670.40164392 327.16366453 -664.47753906 319.03271484 C-663.23612469 317.32484703 -662.00371234 315.6104409 -660.7734375 313.89453125 C-655.85497119 307.04308743 -650.67043043 300.42321948 -645.43212891 293.81591797 C-644.00063361 292.0008034 -642.58244584 290.17605503 -641.16796875 288.34765625 C-636.36690417 282.15419095 -631.46809958 276.17243388 -626.15625 270.40234375 C-623.96458105 267.96053867 -621.91890626 265.4413226 -619.875 262.875 C-611.57511924 252.62391921 -602.28028612 243.15939576 -592.8828125 233.91796875 C-591.1121488 232.11424286 -589.49356726 230.25234066 -587.875 228.3125 C-583.8374346 223.59730125 -579.24960349 219.4841894 -574.68994141 215.28564453 C-570.94855785 211.83654212 -567.30374433 208.33222018 -563.75 204.6875 C-559.68436497 200.56819322 -555.36044927 196.9474518 -550.83984375 193.33984375 C-547.84864741 190.87529546 -545.01276645 188.27467702 -542.1875 185.625 C-536.92222698 180.71604293 -531.38319698 176.27118955 -525.6875 171.875 C-522.48460792 169.39754929 -519.35555387 166.83986329 -516.23388672 164.26123047 C-507.84336145 157.3410606 -499.1575404 150.93220471 -490.29101562 144.63818359 C-487.98785658 142.99131688 -485.70276117 141.3220831 -483.421875 139.64453125 C-474.5211261 133.10993706 -465.48459437 127.01470369 -456.05712891 121.27001953 C-453.94174121 119.96403249 -451.84996243 118.62626839 -449.76171875 117.27734375 C-413.80607245 94.08577367 -375.51035675 74.37610732 -336 58 C-335.2939563 57.70714111 -334.5879126 57.41428223 -333.86047363 57.11254883 C-299.19949068 42.78813601 -263.45771731 30.83422181 -227 22 C-225.99377594 21.75503784 -225.99377594 21.75503784 -224.96722412 21.50512695 C-191.07780035 13.2686403 -157.04881418 7.09195257 -122.37634277 3.26428223 C-120.13702308 3.01523886 -117.89909132 2.75606061 -115.66113281 2.49511719 C-77.3800248 -1.87048399 -38.46135737 -0.28050924 0 0 Z " fill="#EC8796" transform="translate(810,0)"/>
<path d="M0 0 C9.34650027 20.09355226 18.23591106 40.23051838 26 61 C26.38849121 62.03463379 26.77698242 63.06926758 27.17724609 64.13525391 C37.32529936 91.31337357 45.95547672 118.85910077 53 147 C53.3000293 148.18819336 53.60005859 149.37638672 53.90917969 150.60058594 C62.42418228 184.63273914 67.88488021 219.18608655 72 254 C72.12213867 255.0101416 72.24427734 256.0202832 72.37011719 257.06103516 C73.07702304 263.03182512 73.59311866 269.00156832 74 275 C74.08878418 276.30227539 74.17756836 277.60455078 74.26904297 278.94628906 C79.88734777 363.81235578 72.6258061 448.42496125 -26 721 C-26.60827637 722.05558105 -27.21655273 723.11116211 -27.84326172 724.19873047 C-37.89429302 741.61587554 -48.63481171 758.41954526 -60 775 C-60.84256348 776.23266602 -60.84256348 776.23266602 -61.70214844 777.49023438 C-73.92467919 795.30087208 -87.19396911 812.39320152 -101 829 C-101.48839355 829.58749023 -101.97678711 830.17498047 -102.47998047 830.78027344 C-107.77398205 837.12880741 -113.16330796 843.37984751 -118.734375 849.48828125 C-120.6330101 851.5931474 -122.50197825 853.71776007 -124.36328125 855.85546875 C-134.26596169 867.18882938 -144.81160958 877.91201214 -155.4375 888.5625 C-155.95142303 889.07901123 -156.46534607 889.59552246 -156.99484253 890.12768555 C-162.26258229 895.416357 -167.55725898 900.62025136 -173.23217773 905.47729492 C-176.00117916 907.86236078 -178.64746711 910.37524373 -181.3125 912.875 C-186.10514915 917.3337948 -191.02189828 921.56120791 -196.12890625 925.66015625 C-198.82649325 927.8585979 -201.46324303 930.11068081 -204.09155273 932.390625 C-210.64623855 938.07583915 -217.3415946 943.4927955 -224.27978516 948.70507812 C-226.08167344 950.06148111 -227.87506701 951.42862023 -229.66796875 952.796875 C-264.02543669 978.91763459 -300.67140939 1002.16151667 -339 1022 C-340.43037598 1022.7415332 -340.43037598 1022.7415332 -341.88964844 1023.49804688 C-342.78973633 1023.95759766 -343.68982422 1024.41714844 -344.6171875 1024.890625 C-345.81384033 1025.50212402 -345.81384033 1025.50212402 -347.03466797 1026.12597656 C-349 1027 -349 1027 -351 1027 C-351.29379419 1021.68761535 -351.58498225 1016.37509184 -351.875 1011.0625 C-351.91979492 1010.24389496 -351.96458984 1009.42528992 -352.01074219 1008.58187866 C-352.54294053 998.83210404 -353.05276986 989.08182856 -353.5078125 979.328125 C-354.79127569 951.8297873 -356.65738572 924.51353451 -359.7578125 897.15161133 C-360.01753032 894.84425939 -360.27282809 892.53644703 -360.52734375 890.22851562 C-365.13996545 848.46355681 -370.40226473 806.55778274 -379.47680664 765.49389648 C-379.67653076 764.57809814 -379.87625488 763.6622998 -380.08203125 762.71875 C-380.34850464 761.52668945 -380.34850464 761.52668945 -380.62036133 760.31054688 C-381.04529186 757.72434589 -381.34669415 755.6099029 -381 753 C-379.26611328 751.35351562 -379.26611328 751.35351562 -376.8203125 749.90625 C-375.46957642 749.08302246 -375.46957642 749.08302246 -374.09155273 748.24316406 C-373.11259033 747.66791992 -372.13362793 747.09267578 -371.125 746.5 C-369.09492701 745.25966431 -367.06761964 744.01479183 -365.04296875 742.765625 C-364.02380371 742.13849609 -363.00463867 741.51136719 -361.95458984 740.86523438 C-354.70824145 736.29061021 -347.85261695 731.13861755 -341 726 C-340.38801758 725.54109375 -339.77603516 725.0821875 -339.14550781 724.609375 C-328.64455792 716.69730195 -318.46098516 708.47873279 -308.80078125 699.5546875 C-307.32668211 698.21011172 -305.84763313 696.86999482 -304.32983398 695.57495117 C-298.29417467 690.42183134 -292.69676767 684.84864308 -287.09985352 679.23022461 C-285.4407268 677.56573723 -283.77631949 675.90666553 -282.11132812 674.24804688 C-276.53115537 668.67167735 -271.08957538 663.03326927 -266 657 C-265.11162336 655.97834307 -264.22234974 654.95746516 -263.33203125 653.9375 C-256.15811306 645.57348995 -249.48785866 636.90465893 -243 628 C-242.49823242 627.31389648 -241.99646484 626.62779297 -241.47949219 625.92089844 C-234.25444383 616.00097674 -227.59970655 605.83022335 -221.35009766 595.26953125 C-220.02583586 593.0434304 -218.67706779 590.83381377 -217.32421875 588.625 C-205.42219575 568.93723218 -195.95302711 547.567725 -188 526 C-187.6071582 524.93765137 -187.21431641 523.87530273 -186.80957031 522.78076172 C-176.6470958 495.00775779 -170.16975976 467.1970144 -166 438 C-165.87254395 437.1229541 -165.74508789 436.2459082 -165.61376953 435.34228516 C-163.33638581 419.46150983 -162.81327985 403.59317804 -162.81469727 387.57495117 C-162.81251631 384.8330111 -162.79428991 382.0914786 -162.77539062 379.34960938 C-162.72054725 362.29150717 -164.25768481 345.48837451 -166.8125 328.625 C-166.98354248 327.49344482 -167.15458496 326.36188965 -167.33081055 325.19604492 C-170.37315172 305.6903932 -175.14983714 286.841249 -181 268 C-181.27038086 267.11634766 -181.54076172 266.23269531 -181.81933594 265.32226562 C-187.01512665 248.46933368 -193.58664678 232.00413541 -201.33203125 216.15625 C-201.67105469 215.46063965 -202.01007813 214.7650293 -202.359375 214.04833984 C-203.23792047 212.2754963 -204.14315933 210.51594754 -205.05078125 208.7578125 C-206 206 -206 206 -205.27152729 204.05556798 C-203.90506281 201.84652327 -202.44072545 200.19001759 -200.6047821 198.35309982 C-199.8983875 197.64148972 -199.19199289 196.92987962 -198.46419239 196.19670558 C-197.68541076 195.42238539 -196.90662912 194.6480652 -196.10424805 193.85028076 C-195.27907275 193.02198549 -194.45389746 192.19369021 -193.60371685 191.34029508 C-191.31259085 189.04256654 -189.01702444 186.749384 -186.71950293 184.45805359 C-184.24281308 181.98588339 -181.77187847 179.50797238 -179.30020142 177.03079224 C-174.45793862 172.17962939 -169.61027599 167.33389732 -164.76066518 162.49008128 C-160.8211301 158.55505923 -156.88354691 154.61809397 -152.94735718 150.67972565 C-152.38758263 150.11964464 -151.82780809 149.55956363 -151.25107068 148.98251046 C-150.11400673 147.84480708 -148.97694727 146.7070992 -147.83989227 145.56938687 C-137.17460129 134.89839107 -126.50318532 124.23353745 -115.82967174 113.57076707 C-106.66324253 104.4132784 -97.50207671 95.25055166 -88.34472656 86.08398438 C-77.71752986 75.44609614 -67.08711108 64.81144504 -56.45149326 54.1819756 C-55.31853891 53.04965837 -54.18558875 51.91733695 -53.05264282 50.78501129 C-52.21642451 49.94925581 -52.21642451 49.94925581 -51.3633129 49.09661637 C-47.42699479 45.16202819 -43.4930086 41.2251176 -39.55990601 37.28731537 C-34.77104911 32.49286226 -29.9786718 27.70196235 -25.18167853 22.91564938 C-22.73236618 20.47161002 -20.28471127 18.02596798 -17.84132767 15.57600021 C-15.19737749 12.92663102 -12.54741954 10.28342632 -9.89575195 7.64178467 C-9.11697032 6.85854159 -8.33818869 6.07529851 -7.53580761 5.2683208 C-6.4762157 4.21655213 -6.4762157 4.21655213 -5.3952179 3.14353561 C-4.78343343 2.53207585 -4.17164896 1.92061609 -3.54132557 1.29062724 C-2 0 -2 0 0 0 Z " fill="#C59FF5" transform="translate(1464,436)"/>
<path d="M0 0 C0.99 0.495 0.99 0.495 2 1 C2.62255859 3.23046875 2.62255859 3.23046875 3.1484375 6.1875 C3.34679199 7.26999023 3.54514648 8.35248047 3.74951172 9.46777344 C3.95592285 10.6334082 4.16233398 11.79904297 4.375 13 C4.82059729 15.40147319 5.26851395 17.80251718 5.71875 20.203125 C6.04746094 21.96172852 6.04746094 21.96172852 6.3828125 23.75585938 C14.14909211 64.577981 30.57922491 105.96464248 53 141 C53.40138184 141.62970703 53.80276367 142.25941406 54.21630859 142.90820312 C68.3905453 164.98071747 84.75773878 185.16848673 103 204 C103.57669434 204.5986084 104.15338867 205.1972168 104.74755859 205.81396484 C110.93653405 212.21604706 117.22148792 218.23912713 124.21484375 223.7734375 C126.69037448 225.75247329 129.09004187 227.79779999 131.47998047 229.87866211 C139.89613334 237.17170912 148.87351329 243.63034452 158 250 C158.63131836 250.4419873 159.26263672 250.88397461 159.91308594 251.33935547 C175.21935011 261.98556475 191.45629002 271.41599954 208 280 C207.36849415 286.50725594 205.37534726 292.38061103 203.3125 298.5625 C199.81017196 309.27203976 196.70398531 320.03452066 193.82836914 330.92651367 C193.18983937 333.29564165 192.53749527 335.65894578 191.87280273 338.02075195 C188.85719543 348.73834524 186.05882228 359.49186318 183.4375 370.3125 C183.24168335 371.11771088 183.0458667 371.92292175 182.84411621 372.75253296 C180.45749084 382.58951986 178.13585194 392.41940092 176.38465881 402.39329529 C175.45101043 407.67274577 174.40045738 412.9156498 173.27488708 418.15737915 C170.43120415 431.42165837 168.08416164 444.73238463 165.9375 458.125 C165.68178223 459.70279739 165.68178223 459.70279739 165.42089844 461.31246948 C162.63532028 478.50381476 160.10162799 495.71069246 158 513 C154.70860874 511.74197318 151.64934981 510.34043806 148.5859375 508.6015625 C147.75255859 508.1286377 146.91917969 507.65571289 146.06054688 507.16845703 C144.73120117 506.4044458 144.73120117 506.4044458 143.375 505.625 C142.44494141 505.09116699 141.51488281 504.55733398 140.55664062 504.00732422 C119.66114707 491.92467884 99.34995083 478.5979692 79.86083984 464.35742188 C77.75240016 462.819384 75.6356322 461.29310321 73.51953125 459.765625 C63.3157671 452.36222029 53.4784662 444.62383175 43.82177734 436.52197266 C41.33901779 434.44779374 38.82613052 432.41159115 36.3125 430.375 C25.13895695 421.22381768 14.39535616 411.69724581 3.89550781 401.78222656 C2.00957555 400.00900329 0.11251058 398.2486173 -1.7890625 396.4921875 C-23.19127596 376.7065389 -23.19127596 376.7065389 -32.49609375 365.72265625 C-34.09105998 363.89569493 -35.77017842 362.19940713 -37.5 360.5 C-41.21199457 356.83717092 -44.60846641 352.95893845 -48 349 C-49.29550781 347.50339844 -49.29550781 347.50339844 -50.6171875 345.9765625 C-62.64786185 332.05360581 -74.32684529 317.88067321 -85.37451172 303.16259766 C-86.44769448 301.73480359 -87.52477334 300.30992864 -88.60595703 298.88818359 C-115.85492904 263.04726753 -139.09126589 224.27184956 -159.39404297 184.13525391 C-160.50501063 181.96635049 -161.64685265 179.81308722 -162.81298828 177.67333984 C-163.38130371 176.60937988 -163.94961914 175.54541992 -164.53515625 174.44921875 C-165.05601807 173.49748779 -165.57687988 172.54575684 -166.11352539 171.56518555 C-167 169 -167 169 -166.23183978 167.03149199 C-165.02573524 165.04244134 -163.81897772 163.5703905 -162.17703819 161.93094254 C-161.59829583 161.34821807 -161.01955346 160.76549361 -160.42327344 160.16511083 C-159.78709266 159.53475572 -159.15091187 158.90440062 -158.49545288 158.25494385 C-157.4822104 157.23913809 -157.4822104 157.23913809 -156.44849837 156.202811 C-154.17921631 153.93022937 -151.90284982 151.66487922 -149.62646484 149.39941406 C-148.00014526 147.77365849 -146.37426568 146.14746265 -144.74879456 144.52085876 C-140.32996799 140.1014573 -135.90499268 135.68825864 -131.47891188 131.276124 C-126.85620574 126.66590225 -122.23914538 122.05003355 -117.62149048 117.43475342 C-109.8687132 109.68749035 -102.11245259 101.94373062 -94.35351562 94.20263672 C-86.36191474 86.22939486 -78.37241787 78.25405439 -70.38574219 70.27587891 C-69.89341336 69.78407553 -69.40108454 69.29227215 -68.89383666 68.78556564 C-66.42397178 66.31831085 -63.95414822 63.8510147 -61.4843452 61.38369799 C-40.99596532 40.91605033 -20.50027464 20.45573366 0 0 Z " fill="#EDD39F" transform="translate(241,936)"/>
<path d="M0 0 C5.55877088 5.55877088 5.81588815 17.9208495 7.25 25.5 C9.35858816 36.43966402 11.96971478 47.20146545 14.85253906 57.9609375 C15.14612305 59.08371094 15.43970703 60.20648437 15.7421875 61.36328125 C16.0088623 62.35626221 16.27553711 63.34924316 16.55029297 64.37231445 C17.28150265 68.64484964 16.16022383 71.08555404 13.734375 74.5546875 C13.26298096 75.24054932 12.79158691 75.92641113 12.3059082 76.63305664 C11.7924585 77.37289795 11.27900879 78.11273926 10.75 78.875 C-37.34086086 149.6388269 -61.26612551 234.70880326 -66.76635742 319.51586914 C-67 322 -67 322 -67.51635742 324.75 C-68.12590754 328.84607833 -68.1427796 332.83000604 -68.1328125 336.96484375 C-68.13431305 337.82597275 -68.1358136 338.68710175 -68.13735962 339.57432556 C-68.13970875 342.3620982 -68.13346926 345.14974028 -68.125 347.9375 C-68.12278442 348.89182922 -68.12056885 349.84615845 -68.11828613 350.82940674 C-68.04626185 377.18530744 -66.12575704 402.84486412 -63 429 C-63.89570703 429.40814778 -63.89570703 429.40814778 -64.80950916 429.82454097 C-66.95521772 430.97596898 -68.33917404 432.09230875 -70.04785347 433.80734444 C-70.62586114 434.38260341 -71.20386881 434.95786238 -71.79939187 435.55055344 C-72.42449178 436.18284328 -73.0495917 436.81513312 -73.69363403 437.46658325 C-74.70119777 438.47370041 -74.70119777 438.47370041 -75.72911632 439.50116336 C-77.98320401 441.75664224 -80.23005906 444.01919169 -82.47705078 446.28173828 C-84.08969461 447.8982195 -85.7027937 449.51424664 -87.3163147 451.12985229 C-90.79171992 454.61158458 -94.26399221 458.0964014 -97.73392105 461.58359146 C-103.21534568 467.09200847 -108.70434381 472.59283574 -114.19454956 478.09249878 C-121.88596123 485.79857988 -129.57458216 493.50743241 -137.26025391 501.21923828 C-137.7479281 501.7085681 -138.2356023 502.19789792 -138.7380545 502.70205592 C-142.20046794 506.17627268 -145.6627482 509.65062215 -149.125 513.125 C-153.08340185 517.09726189 -157.04186732 521.06946036 -161.00048828 525.04150391 C-161.73201664 525.77551665 -161.73201664 525.77551665 -162.47832336 526.52435793 C-170.59971079 534.67308345 -178.72504012 542.81786564 -186.8530997 550.95993602 C-192.31633562 556.43316843 -197.77465034 561.91124875 -203.22932076 567.39301705 C-206.61547836 570.79403606 -210.00572284 574.19095793 -213.39712143 577.58675003 C-214.97513253 579.16852243 -216.55140536 580.75203104 -218.12585449 582.33734894 C-220.26614031 584.49194924 -222.41240217 586.64040941 -224.56033325 588.78738403 C-225.18989461 589.42413531 -225.81945597 590.0608866 -226.46809494 590.71693337 C-230.77181414 595 -230.77181414 595 -233 595 C-267.97434251 521.83142047 -289.95267963 443.41938405 -303.875 335.3125 C-304.05530762 333.4547998 -304.05530762 333.4547998 -304.23925781 331.55957031 C-304.44048103 329.28132474 -304.61439182 327.00038796 -304.75236416 324.7174387 C-304.91336819 322.30049208 -305.13612147 319.88660044 -305.43007755 317.48219967 C-305.9275467 311.15311396 -305.96318581 306.31334565 -301.84054744 301.18528855 C-299.34487844 298.43443439 -296.69630519 295.87278204 -294.00366211 293.31665039 C-292.81968599 292.13855286 -291.63902455 290.95711624 -290.46142578 289.77264404 C-287.2725722 286.58375701 -284.03986889 283.44304052 -280.79710078 280.30912328 C-277.40051318 277.01056089 -274.04723245 273.66854266 -270.68910217 270.33091736 C-264.32365735 264.01715542 -257.92142066 257.74214676 -251.50449902 251.48075527 C-243.51361721 243.68006368 -235.56989963 235.83186682 -227.62695312 227.98242188 C-219.51181362 219.96456799 -211.39276915 211.9510654 -203.24143982 203.96998596 C-201.98808257 202.74151227 -200.7347704 201.5129926 -199.48150635 200.28442383 C-197.17393952 198.02235482 -194.86292492 195.76389426 -192.54975891 193.5075531 C-191.51149477 192.49009514 -190.4733702 191.47249473 -189.43540955 190.45472717 C-188.54956649 189.58928819 -187.66372343 188.7238492 -186.75103664 187.83218479 C-184.62756136 185.64607272 -182.62289476 183.44214689 -180.63287354 181.13918209 C-177.06566793 177.02445742 -173.29652526 173.15945591 -169.43861389 169.31835938 C-168.70984415 168.58873521 -167.98107441 167.85911104 -167.23022074 167.10737705 C-164.80827026 164.68379056 -162.3827836 162.26377553 -159.95727539 159.84375 C-158.21220779 158.0989647 -156.46736082 156.35395872 -154.72271729 154.60874939 C-150.97669953 150.86250454 -147.22916321 147.11778905 -143.48021126 143.3744812 C-138.05997463 137.96239949 -132.64252787 132.54753211 -127.22574048 127.13199842 C-118.43557251 118.34401471 -109.64317744 109.55826274 -100.84936523 100.77392578 C-92.31107879 92.24482965 -83.77385168 83.71467545 -75.23803711 75.18310547 C-74.71117796 74.65650904 -74.1843188 74.12991261 -73.64149422 73.58735871 C-70.99819082 70.94536042 -68.35490812 68.30334141 -65.71163571 65.6613121 C-43.81096615 43.77099567 -21.90663804 21.88434358 0 0 Z " fill="#F4A87F" transform="translate(306,508)"/>
<path d="M0 0 C9.34650027 20.09355226 18.23591106 40.23051838 26 61 C26.38849121 62.03463379 26.77698242 63.06926758 27.17724609 64.13525391 C37.32529936 91.31337357 45.95547672 118.85910077 53 147 C53.3000293 148.18819336 53.60005859 149.37638672 53.90917969 150.60058594 C63.39680155 188.52003427 69.43052734 227.2471709 73.3125 266.125 C73.38895752 266.88055176 73.46541504 267.63610352 73.54418945 268.41455078 C73.66881976 269.79880944 73.76946396 271.18555478 73.83981669 272.57363087 C73.97025763 275.04337582 73.97025763 275.04337582 74.38944948 277.64319986 C74.84071691 282.41743862 74.77807187 285.74302735 72.21036267 289.89115345 C69.48972023 293.0221152 66.63088726 295.90843036 63.64932251 298.78700256 C62.52210769 299.918738 61.39753656 301.05311167 60.27538717 302.18986982 C57.19308004 305.29701369 54.07472466 308.36558409 50.9490819 311.42904651 C47.58164614 314.74252394 44.24904369 318.09071778 40.9120636 321.43481445 C35.12830276 327.221455 29.3230603 332.98579166 23.50264359 338.73555183 C15.08474235 347.05141701 6.70072891 355.40078061 -1.67535026 363.75874441 C-15.2698444 377.32210673 -28.89054559 390.85882847 -42.52832031 404.37866211 C-55.76859888 417.50456352 -68.99766717 430.64158581 -82.2109375 443.79467773 C-83.02525649 444.60527864 -83.83957547 445.41587954 -84.67857079 446.2510441 C-89.57383224 451.12416903 -94.46862558 455.99776393 -99.36322305 460.87155576 C-106.48581163 467.96384617 -113.6088544 475.0556803 -120.73233032 482.14707947 C-121.49852895 482.9098581 -122.26472757 483.67263674 -123.05414434 484.45852988 C-133.67889238 495.03534041 -144.31238075 505.60329032 -154.95314881 516.163983 C-159.20197389 520.38122765 -163.44961745 524.59966245 -167.69735025 528.81800724 C-171.64730554 532.74023065 -175.59949308 536.66018679 -179.55341002 540.57841629 C-181.94639238 542.95079414 -184.33733031 545.32522398 -186.7276928 547.70024126 C-187.82641061 548.7910178 -188.92601413 549.88090302 -190.02656643 550.96982861 C-191.51681827 552.44451518 -193.00396169 553.92226716 -194.49036217 555.40083408 C-195.73318681 556.63333184 -195.73318681 556.63333184 -197.00111902 557.89072853 C-199.14469581 560.03319596 -199.14469581 560.03319596 -201 563 C-201.66 563 -202.32 563 -203 563 C-201.88031946 559.24466694 -200.45924906 555.7263571 -198.8203125 552.17578125 C-181.97233301 515.67499498 -171.6743116 477.73201504 -166 438 C-165.87254395 437.1229541 -165.74508789 436.2459082 -165.61376953 435.34228516 C-163.33638581 419.46150983 -162.81327985 403.59317804 -162.81469727 387.57495117 C-162.81251631 384.8330111 -162.79428991 382.0914786 -162.77539062 379.34960938 C-162.72054725 362.29150717 -164.25768481 345.48837451 -166.8125 328.625 C-166.98354248 327.49344482 -167.15458496 326.36188965 -167.33081055 325.19604492 C-170.37315172 305.6903932 -175.14983714 286.841249 -181 268 C-181.40557129 266.67452148 -181.40557129 266.67452148 -181.81933594 265.32226562 C-187.01512665 248.46933368 -193.58664678 232.00413541 -201.33203125 216.15625 C-201.84056641 215.11283447 -201.84056641 215.11283447 -202.359375 214.04833984 C-203.23792047 212.2754963 -204.14315933 210.51594754 -205.05078125 208.7578125 C-206 206 -206 206 -205.27152729 204.05556798 C-203.90506281 201.84652327 -202.44072545 200.19001759 -200.6047821 198.35309982 C-199.8983875 197.64148972 -199.19199289 196.92987962 -198.46419239 196.19670558 C-197.29601994 195.03522529 -197.29601994 195.03522529 -196.10424805 193.85028076 C-195.27907275 193.02198549 -194.45389746 192.19369021 -193.60371685 191.34029508 C-191.31259085 189.04256654 -189.01702444 186.749384 -186.71950293 184.45805359 C-184.24281308 181.98588339 -181.77187847 179.50797238 -179.30020142 177.03079224 C-174.45793862 172.17962939 -169.61027599 167.33389732 -164.76066518 162.49008128 C-160.8211301 158.55505923 -156.88354691 154.61809397 -152.94735718 150.67972565 C-152.38758263 150.11964464 -151.82780809 149.55956363 -151.25107068 148.98251046 C-150.11400673 147.84480708 -148.97694727 146.7070992 -147.83989227 145.56938687 C-137.17460129 134.89839107 -126.50318532 124.23353745 -115.82967174 113.57076707 C-106.66324253 104.4132784 -97.50207671 95.25055166 -88.34472656 86.08398438 C-77.71752986 75.44609614 -67.08711108 64.81144504 -56.45149326 54.1819756 C-55.31853891 53.04965837 -54.18558875 51.91733695 -53.05264282 50.78501129 C-52.49516395 50.22784097 -51.93768507 49.67067064 -51.3633129 49.09661637 C-47.42699479 45.16202819 -43.4930086 41.2251176 -39.55990601 37.28731537 C-34.77104911 32.49286226 -29.9786718 27.70196235 -25.18167853 22.91564938 C-22.73236618 20.47161002 -20.28471127 18.02596798 -17.84132767 15.57600021 C-15.19737749 12.92663102 -12.54741954 10.28342632 -9.89575195 7.64178467 C-9.11697032 6.85854159 -8.33818869 6.07529851 -7.53580761 5.2683208 C-6.4762157 4.21655213 -6.4762157 4.21655213 -5.3952179 3.14353561 C-4.78343343 2.53207585 -4.17164896 1.92061609 -3.54132557 1.29062724 C-2 0 -2 0 0 0 Z " fill="#7DC3E3" transform="translate(1464,436)"/>
<path d="M0 0 C8.71475456 7.13025373 16.74265185 15.1776358 24.03515625 23.75390625 C26.18998401 26.21717855 28.41824155 28.59965602 30.65869141 30.98486328 C35.88916122 36.55460681 40.91718421 42.19577772 45.6953125 48.1640625 C47.87917013 50.85131782 50.11958975 53.47423841 52.38842773 56.08935547 C58.07137502 62.64019494 63.48632102 69.33217884 68.69628906 76.26660156 C70.08043288 78.1069426 71.47349576 79.94031857 72.8671875 81.7734375 C93.43029981 108.90504152 112.27072566 137.34795801 129 167 C129.60158936 168.05670898 129.60158936 168.05670898 130.21533203 169.13476562 C133.2059012 174.38995459 136.11742029 179.68491587 139 185 C139.60440918 186.10698242 140.20881836 187.21396484 140.83154297 188.35449219 C142.4943862 191.40617668 144.13678193 194.46825354 145.76815796 197.53686523 C146.41994002 198.75708521 147.07715362 199.97442023 147.73989868 201.1887207 C148.66998974 202.89623243 149.57766746 204.61589474 150.484375 206.3359375 C151.01772461 207.33157715 151.55107422 208.3272168 152.10058594 209.35302734 C153 212 153 212 152.26973975 213.93652844 C150.90104395 216.16081484 149.43114566 217.81722813 147.58357811 219.66251755 C146.87246671 220.37761104 146.16135531 221.09270454 145.42869508 221.82946754 C144.64465826 222.60767867 143.86062144 223.38588981 143.05282593 224.18768311 C142.22215595 225.02006193 141.39148597 225.85244076 140.53564417 226.71004319 C138.22924512 229.01916877 135.91840999 231.32374618 133.60564184 233.6264894 C131.11260322 236.11089691 128.62534107 238.6010756 126.13737488 241.09056091 C121.82610327 245.40288159 117.51118282 249.71152317 113.19376755 254.01769257 C106.95150488 260.24370613 100.71476743 266.47523028 94.47936781 272.70811632 C84.36287427 282.82023183 74.24192179 292.92787228 64.11816406 303.03271484 C54.28346564 312.84905726 44.45086847 322.66749656 34.62109375 332.48876953 C34.01525909 333.09407874 33.40942444 333.69938795 32.78523116 334.32303986 C29.74597158 337.35968938 26.70675331 340.39638023 23.66755557 343.43309164 C-1.54856209 368.62847345 -26.7719167 393.81659958 -52 419 C-54.78605258 415.40637462 -56.81959094 411.60273209 -58.875 407.5625 C-75.85254283 374.96519235 -98.33957018 345.33722532 -123.0078125 318.2109375 C-124.7724713 316.25251225 -126.48262136 314.26023004 -128.1875 312.25 C-130.49630163 309.53343866 -132.94933074 307.10291727 -135.58203125 304.70703125 C-136.22438721 304.10793945 -136.86674316 303.50884766 -137.52856445 302.89160156 C-138.82057034 301.6928761 -140.13260533 300.51530543 -141.46557617 299.36230469 C-145.83038123 295.27040999 -145.83038123 295.27040999 -146.26318359 292.02880859 C-146.02706805 289.62065124 -145.54545666 287.35778756 -145 285 C-144.63098237 282.90747904 -144.2696128 280.8136013 -143.9140625 278.71875 C-143.70676514 277.56552246 -143.49946777 276.41229492 -143.28588867 275.22412109 C-138.85048662 250.23054039 -136.74496685 225.4322737 -136.625 200.0625 C-136.61705414 199.21105408 -136.60910828 198.35960815 -136.60092163 197.48236084 C-136.58907953 195.83509452 -136.58565989 194.18773967 -136.59186554 192.54044247 C-136.5980703 190.77742743 -136.59205108 189.01430034 -136.57029915 187.25140858 C-136.60878202 181.42375999 -137.33629123 176.2563439 -138.76152039 170.60005188 C-141.1046038 160.47194458 -143.2954103 149.17724448 -137.79957581 139.73713112 C-130.78728719 129.36696933 -121.15625015 120.87846548 -112.03410888 112.41425943 C-108.03435704 108.66332475 -104.1429766 104.80301421 -100.23860168 100.95333862 C-92.85102909 93.70062856 -85.37619222 86.54567897 -77.86249381 79.42395675 C-68.46973176 70.51312483 -59.18892532 61.48826643 -49.91210938 52.45703125 C-46.66485649 49.29583461 -43.41715759 46.13509863 -40.16853333 42.97531128 C-39.38250349 42.21065674 -38.59647365 41.44600219 -37.78662473 40.6581763 C-33.11171315 36.11620058 -28.41592512 31.59720256 -23.69934309 27.09851861 C-20.77877619 24.31256637 -17.86480997 21.51975978 -14.95108223 18.72665787 C-13.5953064 17.43125214 -12.23597757 16.13955367 -10.87293243 14.85179901 C-9.01813209 13.09927547 -7.17552311 11.33479552 -5.33512878 9.56716919 C-4.78834966 9.05727986 -4.24157054 8.54739054 -3.67822236 8.02205002 C-2.01214449 6.45279154 -2.01214449 6.45279154 0 4 C0 2.68 0 1.36 0 0 Z " fill="#A5D995" transform="translate(1310,222)"/>
<path d="M0 0 C25.16485414 11.5862544 49.38490321 24.54107878 73 39 C73.8971875 39.54930176 74.794375 40.09860352 75.71875 40.66455078 C103.47253592 57.74833374 130.07199653 76.83328645 155.22802734 97.54394531 C156.79924095 98.83503349 158.37762391 100.11738584 159.95703125 101.3984375 C171.4006389 110.68066098 182.49702212 120.30472238 193.25244141 130.37451172 C195.1713501 132.15938097 197.10621013 133.92592872 199.04296875 135.69140625 C200.4037256 136.94001724 201.76440408 138.18871364 203.125 139.4375 C204.08490845 140.30640869 204.08490845 140.30640869 205.06420898 141.19287109 C211.39995042 147.03954671 211.39995042 147.03954671 213 151 C211.64035156 155.0639387 208.49525402 157.77788405 205.52047729 160.72003174 C204.95523822 161.28697966 204.38999914 161.85392759 203.80763161 162.43805575 C201.91146962 164.33751328 200.00824535 166.22973195 198.10498047 168.12207031 C196.74466731 169.48181937 195.38479431 170.84200889 194.02532959 172.2026062 C190.33168415 175.89682621 186.63189822 179.58484098 182.93099737 183.2717905 C179.06502353 187.1252743 175.20470077 190.98441061 171.34378052 194.84295654 C164.03090769 202.14960954 156.71295087 209.45114869 149.3931638 216.75087428 C141.06043847 225.06125631 132.73338149 233.37730811 124.40680099 241.69384623 C107.2775102 258.8022236 90.14109649 275.90345151 73 293 C70.48413777 290.48413777 70.60817158 289.31193285 70.1875 285.8125 C67.92957167 269.90116133 64.29485976 254.17469485 59 239 C58.74492676 238.25830566 58.48985352 237.51661133 58.22705078 236.75244141 C48.61567319 207.5020928 48.61567319 207.5020928 27 187 C23.0372972 185.47463084 19.19704766 184.61096263 15 184 C14.08476563 183.86207031 13.16953125 183.72414063 12.2265625 183.58203125 C0.1933632 182.72712567 -11.6914948 187.43033553 -23 191 C-23.98387695 191.31001953 -24.96775391 191.62003906 -25.98144531 191.93945312 C-55.731977 201.47500972 -83.48645319 214.98222151 -109 233 C-109.69609375 233.49113281 -110.3921875 233.98226562 -111.109375 234.48828125 C-120.58347817 241.23768934 -129.17302162 248.60990534 -137.56640625 256.65185547 C-139.31893718 258.29992696 -141.14768755 259.8405632 -143 261.375 C-151.78665263 268.99511631 -159.59878276 277.97710626 -166.75 287.125 C-167.19303467 287.68977051 -167.63606934 288.25454102 -168.0925293 288.83642578 C-170.35884465 291.76299964 -172.51529372 294.73243515 -174.5859375 297.80078125 C-180.57670061 306.51513977 -180.57670061 306.51513977 -184.1328125 307.7265625 C-186.62973912 307.53307372 -188.62389442 306.80262508 -191 306 C-201.47373113 302.74369867 -211.98010204 300.4405231 -222.75 298.4375 C-223.55348877 298.28625671 -224.35697754 298.13501343 -225.18481445 297.97918701 C-240.50992302 295.10696211 -255.88500162 292.76915199 -271.4609375 291.78027344 C-272.61851562 291.70583008 -273.77609375 291.63138672 -274.96875 291.5546875 C-276.55333008 291.46550049 -276.55333008 291.46550049 -278.16992188 291.37451172 C-280.93783827 291.00822603 -282.57471473 290.29915557 -285 289 C-284.31392497 288.31530766 -284.31392497 288.31530766 -283.61398983 287.61678314 C-272.45944989 276.4843754 -261.30771623 265.34916523 -250.15905666 254.21086884 C-244.76747582 248.82443338 -239.37496682 243.43893343 -233.98022461 238.05566406 C-229.27545269 233.36089283 -224.57247074 228.66433694 -219.87158543 223.96567392 C-217.38492601 221.48031249 -214.89740934 218.99582356 -212.40774345 216.51347351 C-209.62119841 213.73504955 -206.83865294 210.95264063 -204.05639648 208.16992188 C-203.23999695 207.35711761 -202.42359741 206.54431335 -201.5824585 205.70687866 C-200.43211372 204.55447189 -200.43211372 204.55447189 -199.25852966 203.37878418 C-198.60129127 202.72246758 -197.94405287 202.06615097 -197.26689816 201.38994598 C-195.35873706 199.3782094 -193.54314899 197.32954801 -191.73252869 195.23126698 C-188.00243739 190.94459273 -184.05177562 186.92359832 -180.02101135 182.92094421 C-179.24732253 182.14851767 -178.47363372 181.37609112 -177.67649978 180.58025771 C-175.10254148 178.01164547 -172.52501797 175.44664144 -169.94750977 172.8815918 C-168.09404591 171.03332492 -166.24082651 169.18481289 -164.38783264 167.33607483 C-160.40768763 163.36560339 -156.42587138 159.39681459 -152.44305611 155.42902184 C-146.15040152 149.15981018 -139.86299349 142.8853511 -133.57640076 136.61006165 C-131.4229666 134.46062787 -129.26949829 132.3112283 -127.11601925 130.16183949 C-126.57802957 129.62486904 -126.0400399 129.08789859 -125.4857475 128.53465631 C-119.37459723 122.4352272 -113.26236552 116.33688232 -107.1496582 110.23901367 C-106.3122426 109.40362672 -106.3122426 109.40362672 -105.45790952 108.55136327 C-96.38867396 99.50436105 -87.31562522 90.46119032 -78.24163473 81.41895761 C-68.92013269 72.12980113 -59.60436029 62.83492466 -50.29350322 53.53509837 C-44.55169252 47.80052062 -38.80517783 42.0707383 -33.05258267 36.34697858 C-28.65404051 31.96961205 -24.26327627 27.58452162 -19.87541771 23.19644737 C-18.07036978 21.39383205 -16.26272456 19.5938134 -14.45236969 17.79652786 C-11.99135489 15.35254902 -9.53962597 12.89962616 -7.09010315 10.44413757 C-6.36337971 9.72683478 -5.63665627 9.00953198 -4.8879109 8.27049273 C-4.23734943 7.61457481 -3.58678795 6.95865689 -2.91651249 6.28286266 C-2.34920762 5.71723903 -1.78190275 5.15161539 -1.19740683 4.56885165 C0.30335672 2.93147225 0.30335672 2.93147225 0 0 Z " fill="#EDD39E" transform="translate(1098,73)"/>
<path d="M0 0 C3.92865367 2.93921976 7.85313629 5.88320893 11.75390625 8.859375 C32.2192943 24.43185187 54.08750225 38.29321686 77 50 C76.36849415 56.50725594 74.37534726 62.38061103 72.3125 68.5625 C68.81017196 79.27203976 65.70398531 90.03452066 62.82836914 100.92651367 C62.18983937 103.29564165 61.53749527 105.65894578 60.87280273 108.02075195 C57.85719543 118.73834524 55.05882228 129.49186318 52.4375 140.3125 C52.24168335 141.11771088 52.0458667 141.92292175 51.84411621 142.75253296 C49.45749084 152.58951986 47.13585194 162.41940092 45.38465881 172.39329529 C44.45101043 177.67274577 43.40045738 182.9156498 42.27488708 188.15737915 C39.43120415 201.42165837 37.08416164 214.73238463 34.9375 228.125 C34.68178223 229.70279739 34.68178223 229.70279739 34.42089844 231.31246948 C31.63532028 248.50381476 29.10162799 265.71069246 27 283 C23.70860874 281.74197318 20.64934981 280.34043806 17.5859375 278.6015625 C16.75255859 278.1286377 15.91917969 277.65571289 15.06054688 277.16845703 C13.73120117 276.4044458 13.73120117 276.4044458 12.375 275.625 C11.44494141 275.09116699 10.51488281 274.55733398 9.55664062 274.00732422 C-11.33885293 261.92467884 -31.65004917 248.5979692 -51.13916016 234.35742188 C-53.24759984 232.819384 -55.3643678 231.29310321 -57.48046875 229.765625 C-67.6842329 222.36222029 -77.5215338 214.62383175 -87.17822266 206.52197266 C-89.66098221 204.44779374 -92.17386948 202.41159115 -94.6875 200.375 C-105.84905539 191.23363563 -116.58151307 181.71815433 -127.06933594 171.81298828 C-129.05855476 169.94501421 -131.06216116 168.09368884 -133.0703125 166.24609375 C-133.73877197 165.62911621 -134.40723145 165.01213867 -135.09594727 164.37646484 C-136.36205808 163.20859354 -137.63059081 162.04333964 -138.90209961 160.88134766 C-142.91908269 157.16280728 -146.5252837 153.22888136 -150 149 C-149.30001514 148.62491586 -148.60003029 148.24983171 -147.87883377 147.86338139 C-144.48768102 145.66839153 -141.76554 143.03945504 -138.93865967 140.18589783 C-138.34706157 139.59671414 -137.75546347 139.00753046 -137.14593816 138.40049273 C-135.16900893 136.42918981 -133.19929635 134.45083278 -131.22949219 132.47241211 C-129.812098 131.05609104 -128.39427093 129.64020309 -126.9760437 128.22471619 C-123.1288275 124.38234559 -119.28788749 120.53375687 -115.44817257 116.68389201 C-111.43205088 112.65898865 -107.41065995 108.63935634 -103.38995361 104.61903381 C-96.64131966 97.8694635 -89.8965696 91.11603178 -83.15429688 84.36010742 C-75.35103096 76.5411004 -67.54253501 68.72734802 -59.73102832 60.91657442 C-52.22304494 53.40920057 -44.71791912 45.89897721 -37.21439362 38.3871479 C-34.01742057 35.18663776 -30.81959377 31.98698421 -27.62111664 28.78797722 C-23.85952923 25.02538803 -20.10049283 21.26026863 -16.34344864 17.49314308 C-14.96116036 16.1079251 -13.5780159 14.72356092 -12.19397354 13.34009552 C-10.3114609 11.45807086 -8.43203482 9.57301859 -6.55340576 7.68711853 C-5.99943265 7.13469402 -5.44545953 6.58226951 -4.87469935 6.01310486 C-2.09259456 3.26676231 -2.09259456 3.26676231 0 0 Z " fill="#A5D995" transform="translate(372,1166)"/>
<path d="M0 0 C3.44311523 0.85107422 3.44311523 0.85107422 7.05859375 2.0546875 C7.71626236 2.27159241 8.37393097 2.48849731 9.05152893 2.7119751 C11.18454949 3.42067055 13.31122028 4.14634919 15.4375 4.875 C16.16831787 5.12231873 16.89913574 5.36963745 17.65209961 5.62445068 C44.9789295 14.88428167 70.7783568 26.01796608 93.8125 43.625 C96.604791 46.19916044 96.604791 46.19916044 99 46 C100.22157583 44.56584602 101.37667537 43.07484484 102.5 41.5625 C116.42003206 23.85741451 140.33519062 8.70871405 162.671875 4.49609375 C163.35765625 4.47675781 164.0434375 4.45742187 164.75 4.4375 C165.44609375 4.39496094 166.1421875 4.35242187 166.859375 4.30859375 C170.42404547 5.45995629 172.20944401 7.86371167 174 11 C175.38299283 14.80669324 176.2949401 18.6781735 177.1875 22.625 C177.5577832 24.15060547 177.5577832 24.15060547 177.93554688 25.70703125 C178.66970525 28.79636969 179.34450479 31.89309155 180 35 C180.30019043 36.33272949 180.30019043 36.33272949 180.60644531 37.69238281 C182.44777725 46.92539431 182.37219169 56.22770486 182.37060547 65.60546875 C182.37494954 68.46676519 182.41128853 71.3264779 182.44921875 74.1875 C182.50878829 83.62673046 182.04141946 92.74084344 180.2890625 102.03125 C180.14197845 102.84799194 179.99489441 103.66473389 179.84335327 104.50622559 C178.69303621 109.92566157 176.96692606 113.09930356 173 117 C165.91360801 119.36213066 160.07547591 117.34046839 153.375 114.875 C152.4883667 114.55515137 151.6017334 114.23530273 150.68823242 113.90576172 C143.59964851 111.30758135 136.74117869 108.40674585 130 105 C129.00057373 104.50113281 129.00057373 104.50113281 127.98095703 103.9921875 C118.72013027 99.34610613 110.14354757 94.45503663 102 88 C99.77063781 90.86443273 97.90776784 93.81510021 96.0625 96.9375 C80.92711555 120.85396193 55.17489605 138.72738744 28 146 C24.15065654 146.7473979 20.3550581 147.25360325 16.4375 147.4375 C15.52871094 147.49808594 14.61992188 147.55867188 13.68359375 147.62109375 C9.73829592 146.70798989 8.09262251 144.25675297 6 141 C4.36609087 138.12848267 2.9439797 135.18759047 1.5625 132.1875 C0.98109253 130.93779419 0.98109253 130.93779419 0.38793945 129.6628418 C-5.61051308 116.529951 -9.87607128 103.07878688 -13 89 C-13.14566406 88.35256836 -13.29132812 87.70513672 -13.44140625 87.03808594 C-19.21012864 61.06584254 -19.66480941 30.68434249 -12 5 C-8.32833423 -0.03542734 -6.04553738 -0.40687725 0 0 Z " fill="#ED989F" transform="translate(810,1210)"/>
<path d="M0 0 C31.78456407 -1.16967196 61.55140144 9.59169251 85.38232422 30.63623047 C86.95278671 32.10694045 88.51562884 33.58584035 90.06982422 35.07373047 C91.17197266 36.08113281 91.17197266 36.08113281 92.29638672 37.10888672 C108.01867349 51.97005884 125.72640474 77.82666288 127.27294922 99.98388672 C126.95798667 103.70892456 125.96206157 106.87650184 124.06982422 110.07373047 C120.16654649 112.96215599 118.10956916 113.98850547 113.25732422 114.38623047 C107.24170109 113.24813961 103.25193556 108.20364697 99.06982422 104.07373047 C75.32115017 81.94889738 43.99825051 67.82679604 11.31982422 67.94873047 C10.29888672 67.94486328 9.27794922 67.94099609 8.22607422 67.93701172 C-1.80251832 67.94973836 -11.41285377 68.57389434 -21.11767578 71.19873047 C-21.93010742 71.41754883 -22.74253906 71.63636719 -23.57958984 71.86181641 C-50.77687151 79.51270992 -74.31316698 96.41426331 -91.14111328 119.04248047 C-93.77414948 122.03195388 -95.89162616 122.93826748 -99.80517578 123.44873047 C-104.86953818 122.84100698 -107.73850626 120.5729276 -110.86767578 116.63623047 C-115.49067212 101.1355957 -105.97847984 80.67216003 -98.93017578 67.07373047 C-98.45837891 66.13400391 -97.98658203 65.19427734 -97.50048828 64.22607422 C-91.81118795 53.29339169 -84.35661489 44.01042108 -75.93017578 35.07373047 C-75.26759766 34.33509766 -74.60501953 33.59646484 -73.92236328 32.83544922 C-56.89299905 14.60820195 -29.86687807 1.40879411 -4.84033203 0.13232422 C-3.22661228 0.09983322 -1.61287053 0.06160978 0 0 Z " fill="#C9D2F3" transform="translate(687.93017578125,592.92626953125)"/>
<path d="M0 0 C13.20693566 11.46479866 22.46678079 25.40960103 29.51025391 41.31103516 C29.97689453 42.34615234 30.44353516 43.38126953 30.92431641 44.44775391 C33.29995648 50.24140673 34.43912827 55.20716298 32.51025391 61.31103516 C30.81482209 64.13675485 29.59835969 64.99660155 26.45556641 65.90478516 C22.50083896 66.59719535 20.17797841 66.63098648 16.51025391 64.87353516 C14.05981043 62.78044802 11.65690751 60.65217144 9.26025391 58.49853516 C-14.80619164 36.93404682 -44.4098613 28.28819189 -76.17578125 29.24169922 C-77.98171324 29.2958124 -79.78852376 29.32083725 -81.59521484 29.33447266 C-108.19344191 30.43392242 -133.14762133 46.05809414 -151.48974609 64.31103516 C-153.40013728 66.4072075 -155.25453761 68.52408081 -157.05224609 70.71728516 C-159.71066945 73.66466757 -161.41249877 74.30231368 -165.36474609 74.74853516 C-168.92816684 74.676348 -169.4542247 74.33975458 -172.42724609 71.93603516 C-175.75259073 67.70377835 -176.03398786 64.57463048 -175.48974609 59.31103516 C-169.8312908 30.50745247 -152.76087726 5.6879989 -128.48974609 -10.68896484 C-88.14584375 -36.62511563 -35.82784392 -30.60406506 0 0 Z " fill="#C8D1F3" transform="translate(1103.48974609375,611.68896484375)"/>
<path d="M0 0 C1.9375 0.6875 1.9375 0.6875 2.9375 2.6875 C4.56339063 16.15916522 -3.43597151 30.09122642 -11.0625 40.6875 C-13.89001545 44.21322855 -16.87344807 47.48711929 -20.0625 50.6875 C-20.67480469 51.32300781 -21.28710938 51.95851563 -21.91796875 52.61328125 C-31.2773528 61.61345653 -44.37282814 67.09406395 -57.3125 67 C-58.43446777 66.99806641 -58.43446777 66.99806641 -59.57910156 66.99609375 C-64.85281858 66.90512839 -69.34862913 65.9663528 -74.3828125 64.375 C-81.29900456 62.60058338 -88.5327105 62.43582526 -94.9375 65.8125 C-97.58490905 67.51542798 -99.92053415 69.39018602 -102.25 71.5 C-117.19245136 84.8279796 -137.09718318 89.64654728 -156.65771484 88.85791016 C-178.65903185 87.29883206 -197.60455264 75.02025474 -212.63671875 59.53125 C-216.7046915 54.76235441 -220.5940286 49.40220261 -221.39453125 43.0546875 C-221.0625 40.6875 -221.0625 40.6875 -219.79296875 38.88671875 C-217.23192749 37.11191138 -214.96874099 37.41379617 -211.98046875 37.84765625 C-205.95501961 39.5818886 -200.50230224 42.77509806 -194.97802734 45.69042969 C-192.3524678 47.05708597 -189.68815463 48.32409497 -187 49.5625 C-186.20464844 49.93117188 -185.40929687 50.29984375 -184.58984375 50.6796875 C-177.95969174 53.32355028 -172.11860643 54.0437269 -165.0625 54 C-163.67744263 53.99371582 -163.67744263 53.99371582 -162.2644043 53.98730469 C-143.39333291 53.67963307 -126.42693579 48.09885337 -112.75 34.75 C-109.85392888 31.74412523 -107.24334014 28.70304845 -104.8125 25.3125 C-102.30659923 21.85197036 -100.00872323 19.53980886 -96.0625 17.6875 C-89.74695851 17.8998532 -85.45640992 20.40473225 -80.1875 23.5625 C-68.02413697 30.80210029 -56.83992262 34.01434698 -42.66796875 30.7734375 C-29.19337819 27.27964001 -20.53935522 22.23204084 -12.328125 10.83203125 C-4.07845113 -0.61794714 -4.07845113 -0.61794714 0 0 Z " fill="#C8D1F2" transform="translate(1023.0625,858.3125)"/>
<path d="M0 0 C1.13526123 -0.05148193 1.13526123 -0.05148193 2.29345703 -0.10400391 C6.11644156 -0.13470004 8.64510731 0.35703795 11.6171875 2.69140625 C15.92152845 7.18094882 17.85808303 11.74307083 18.75 17.875 C17.36888771 27.71542509 12.16687062 34.71419904 6.25 42.4375 C4.9347635 44.28972656 3.6222394 46.14388228 2.3125 48 C-16.22948224 73.40938307 -16.22948224 73.40938307 -28.75 75.4375 C-41.261241 77.14153999 -49.26310231 73.72393921 -59.75 67.4375 C-60.7503125 66.85226562 -61.750625 66.26703125 -62.78125 65.6640625 C-69.77368337 61.38421104 -76.2481017 56.41767742 -82.75 51.4375 C-83.88295754 50.59739571 -85.01709625 49.75888225 -86.15234375 48.921875 C-102.6424657 36.67408357 -102.6424657 36.67408357 -105.75 26.4375 C-106.54483356 20.7953012 -105.58712499 16.44975415 -102.75 11.4375 C-97.85454798 6.32194238 -94.11647284 5.6008028 -87.1875 5.25 C-86.21079346 5.18232422 -85.23408691 5.11464844 -84.2277832 5.04492188 C-80.73635548 4.81352224 -77.24416558 4.6229872 -73.75 4.4375 C-72.3248509 4.35890294 -70.89972143 4.27994938 -69.47460938 4.20068359 C-63.18686582 3.85263652 -56.8988923 3.5105054 -50.60961914 3.19116211 C-41.26577121 2.71292782 -31.94919042 2.09579111 -22.625 1.3125 C-15.0882106 0.71014451 -7.56029085 0.17273072 0 0 Z " fill="#C8D1F3" transform="translate(952.75,768.5625)"/>
<path d="M0 0 C0.66 0.33 1.32 0.66 2 1 C-11.53 14.53 -25.06 28.06 -39 42 C-39.66 41.67 -40.32 41.34 -41 41 C-40.43152344 40.443125 -39.86304688 39.88625 -39.27734375 39.3125 C-35.67153878 35.74883298 -32.11622119 32.21381324 -28.875 28.3125 C-24.84397578 23.60494024 -20.26346776 19.50019334 -15.71411133 15.30541992 C-10.33223206 10.33861633 -5.12465904 5.23318123 0 0 Z " fill="#E09C9B" transform="translate(251,200)"/>
</svg>
